<mxfile host="65bd71144e">
    <diagram id="tV63bgnk83vqrcvyt6QM" name="Main">
        <mxGraphModel dx="1684" dy="1131" grid="1" gridSize="10" guides="1" tooltips="1" connect="1" arrows="1" fold="1" page="1" pageScale="1" pageWidth="827" pageHeight="1169" math="0" shadow="0">
            <root>
                <mxCell id="0"/>
                <mxCell id="1" parent="0"/>
                <mxCell id="4" style="edgeStyle=none;html=1;entryX=0.5;entryY=0;entryDx=0;entryDy=0;" edge="1" parent="1" source="2" target="3">
                    <mxGeometry relative="1" as="geometry"/>
                </mxCell>
                <mxCell id="2" value="start" style="ellipse;whiteSpace=wrap;html=1;" vertex="1" parent="1">
                    <mxGeometry x="378.5" y="40" width="70" height="30" as="geometry"/>
                </mxCell>
                <mxCell id="17" style="edgeStyle=none;html=1;" edge="1" parent="1" source="3" target="5">
                    <mxGeometry relative="1" as="geometry"/>
                </mxCell>
                <mxCell id="3" value="&lt;div style=&quot;color: rgb(212 , 212 , 212) ; background-color: rgb(30 , 30 , 30) ; font-family: &amp;#34;droid sans mono&amp;#34; , &amp;#34;monospace&amp;#34; , monospace ; font-size: 14px ; line-height: 19px&quot;&gt;&lt;span style=&quot;color: #ce9178&quot;&gt;&quot;--Данная программа запрашивает массив строковых элементов&lt;/span&gt;&lt;span style=&quot;color: #ce9178&quot;&gt;&quot;&lt;/span&gt;&lt;/div&gt;&lt;div style=&quot;color: rgb(212 , 212 , 212) ; background-color: rgb(30 , 30 , 30) ; font-family: &amp;#34;droid sans mono&amp;#34; , &amp;#34;monospace&amp;#34; , monospace ; font-size: 14px ; line-height: 19px&quot;&gt;&lt;div style=&quot;font-family: &amp;#34;droid sans mono&amp;#34; , &amp;#34;monospace&amp;#34; , monospace ; line-height: 19px&quot;&gt;&lt;span style=&quot;color: #ce9178&quot;&gt;&quot;Заполните массив&lt;/span&gt;&lt;span style=&quot;color: rgb(206 , 145 , 120)&quot;&gt;&quot;&lt;/span&gt;&lt;/div&gt;&lt;/div&gt;" style="shape=document;whiteSpace=wrap;html=1;boundedLbl=1;" vertex="1" parent="1">
                    <mxGeometry x="161" y="100" width="505" height="60" as="geometry"/>
                </mxCell>
                <mxCell id="8" value="" style="edgeStyle=none;html=1;" edge="1" parent="1" source="5" target="7">
                    <mxGeometry relative="1" as="geometry"/>
                </mxCell>
                <mxCell id="5" value="&lt;div style=&quot;color: rgb(212 , 212 , 212) ; background-color: rgb(30 , 30 , 30) ; font-family: &amp;#34;droid sans mono&amp;#34; , &amp;#34;monospace&amp;#34; , monospace ; font-size: 14px ; line-height: 19px&quot;&gt;&lt;span style=&quot;color: #9cdcfe&quot;&gt;arr&lt;/span&gt; = &lt;span style=&quot;color: #dcdcaa&quot;&gt;GetNewArr&lt;/span&gt;()&lt;/div&gt;" style="rounded=0;whiteSpace=wrap;html=1;" vertex="1" parent="1">
                    <mxGeometry x="328.5" y="180" width="170" height="40" as="geometry"/>
                </mxCell>
                <mxCell id="10" style="edgeStyle=none;html=1;entryX=0.5;entryY=0;entryDx=0;entryDy=0;" edge="1" parent="1" source="7" target="9">
                    <mxGeometry relative="1" as="geometry"/>
                </mxCell>
                <mxCell id="7" value="&lt;div style=&quot;color: rgb(212 , 212 , 212) ; background-color: rgb(30 , 30 , 30) ; font-family: &amp;#34;droid sans mono&amp;#34; , &amp;#34;monospace&amp;#34; , monospace ; font-size: 14px ; line-height: 19px&quot;&gt;&lt;span style=&quot;color: #ce9178&quot;&gt;&quot;Создан массив:&quot;&lt;/span&gt;&lt;/div&gt;" style="shape=document;whiteSpace=wrap;html=1;boundedLbl=1;rounded=0;" vertex="1" parent="1">
                    <mxGeometry x="331" y="250" width="165" height="50" as="geometry"/>
                </mxCell>
                <mxCell id="12" value="" style="edgeStyle=none;html=1;" edge="1" parent="1" source="9" target="11">
                    <mxGeometry relative="1" as="geometry"/>
                </mxCell>
                <mxCell id="9" value="&lt;div style=&quot;color: rgb(212 , 212 , 212) ; background-color: rgb(30 , 30 , 30) ; font-family: &amp;#34;droid sans mono&amp;#34; , &amp;#34;monospace&amp;#34; , monospace ; font-size: 14px ; line-height: 19px&quot;&gt;&lt;span style=&quot;color: #dcdcaa&quot;&gt;ShowArr&lt;/span&gt;(&lt;span style=&quot;color: #9cdcfe&quot;&gt;arr&lt;/span&gt;)&lt;/div&gt;&lt;div style=&quot;color: rgb(212 , 212 , 212) ; background-color: rgb(30 , 30 , 30) ; font-family: &amp;#34;droid sans mono&amp;#34; , &amp;#34;monospace&amp;#34; , monospace ; font-size: 14px ; line-height: 19px&quot;&gt;&lt;span style=&quot;color: #9cdcfe&quot;&gt;choiceLen&lt;/span&gt; = &lt;span style=&quot;color: #dcdcaa&quot;&gt;GetLengthElements&lt;/span&gt;()&lt;/div&gt;" style="rounded=0;whiteSpace=wrap;html=1;" vertex="1" parent="1">
                    <mxGeometry x="273.5" y="330" width="280" height="60" as="geometry"/>
                </mxCell>
                <mxCell id="14" value="" style="edgeStyle=none;html=1;" edge="1" parent="1" source="11">
                    <mxGeometry relative="1" as="geometry">
                        <mxPoint x="413.5" y="520" as="targetPoint"/>
                    </mxGeometry>
                </mxCell>
                <mxCell id="11" value="&lt;div style=&quot;color: rgb(212, 212, 212); background-color: rgb(30, 30, 30); font-family: &amp;quot;droid sans mono&amp;quot;, &amp;quot;monospace&amp;quot;, monospace; font-weight: normal; font-size: 14px; line-height: 19px;&quot;&gt;&lt;div&gt;&lt;span style=&quot;color: #ce9178&quot;&gt;&quot;Ниже указан результат выборки&quot;&lt;/span&gt;&lt;/div&gt;&lt;/div&gt;" style="shape=document;whiteSpace=wrap;html=1;boundedLbl=1;rounded=0;" vertex="1" parent="1">
                    <mxGeometry x="278.5" y="430" width="270" height="50" as="geometry"/>
                </mxCell>
                <mxCell id="16" value="" style="edgeStyle=none;html=1;" edge="1" parent="1" target="15">
                    <mxGeometry relative="1" as="geometry">
                        <mxPoint x="413.5" y="580" as="sourcePoint"/>
                    </mxGeometry>
                </mxCell>
                <mxCell id="13" value="&lt;div style=&quot;color: rgb(212 , 212 , 212) ; background-color: rgb(30 , 30 , 30) ; font-family: &amp;#34;droid sans mono&amp;#34; , &amp;#34;monospace&amp;#34; , monospace ; font-weight: normal ; font-size: 14px ; line-height: 19px&quot;&gt;&lt;div&gt;&lt;span style=&quot;color: #9cdcfe&quot;&gt;newArr&lt;/span&gt;&lt;span style=&quot;color: #d4d4d4&quot;&gt; &lt;/span&gt;&lt;span style=&quot;color: #d4d4d4&quot;&gt;=&lt;/span&gt;&lt;span style=&quot;color: #d4d4d4&quot;&gt; &lt;/span&gt;&lt;span style=&quot;color: #dcdcaa&quot;&gt;ChoiceValuesInArr&lt;/span&gt;&lt;span style=&quot;color: #d4d4d4&quot;&gt;(&lt;/span&gt;&lt;span style=&quot;color: #9cdcfe&quot;&gt;arr&lt;/span&gt;&lt;span style=&quot;color: #d4d4d4&quot;&gt;, &lt;/span&gt;&lt;span style=&quot;color: #9cdcfe&quot;&gt;choiceLen&lt;/span&gt;&lt;span style=&quot;color: #d4d4d4&quot;&gt;)&lt;/span&gt;&lt;/div&gt;&lt;div&gt;&lt;div style=&quot;font-family: &amp;#34;droid sans mono&amp;#34; , &amp;#34;monospace&amp;#34; , monospace ; line-height: 19px&quot;&gt;&lt;span style=&quot;color: #dcdcaa&quot;&gt;ShowArr&lt;/span&gt;(&lt;span style=&quot;color: #9cdcfe&quot;&gt;newArr&lt;/span&gt;)&lt;/div&gt;&lt;/div&gt;&lt;/div&gt;" style="rounded=0;whiteSpace=wrap;html=1;" vertex="1" parent="1">
                    <mxGeometry x="226" y="510" width="375" height="60" as="geometry"/>
                </mxCell>
                <mxCell id="15" value="end" style="ellipse;whiteSpace=wrap;html=1;rounded=0;" vertex="1" parent="1">
                    <mxGeometry x="353.5" y="620" width="120" height="60" as="geometry"/>
                </mxCell>
            </root>
        </mxGraphModel>
    </diagram>
    <diagram id="KEKcj8MJ8aRnzpKFRz0c" name="GetNewArr">
        <mxGraphModel dx="2511" dy="1131" grid="1" gridSize="10" guides="1" tooltips="1" connect="1" arrows="1" fold="1" page="1" pageScale="1" pageWidth="827" pageHeight="1169" math="0" shadow="0">
            <root>
                <mxCell id="IdGP9WswjfbOHASGG7qD-0"/>
                <mxCell id="IdGP9WswjfbOHASGG7qD-1" parent="IdGP9WswjfbOHASGG7qD-0"/>
                <mxCell id="IdGP9WswjfbOHASGG7qD-4" value="" style="edgeStyle=none;html=1;" edge="1" parent="IdGP9WswjfbOHASGG7qD-1" source="IdGP9WswjfbOHASGG7qD-2" target="IdGP9WswjfbOHASGG7qD-3">
                    <mxGeometry relative="1" as="geometry"/>
                </mxCell>
                <mxCell id="IdGP9WswjfbOHASGG7qD-2" value="&lt;div style=&quot;color: rgb(212 , 212 , 212) ; background-color: rgb(30 , 30 , 30) ; font-family: &amp;#34;droid sans mono&amp;#34; , &amp;#34;monospace&amp;#34; , monospace ; font-size: 14px ; line-height: 19px&quot;&gt;&lt;span style=&quot;color: #dcdcaa&quot;&gt;GetNewArr&lt;/span&gt;()&lt;/div&gt;" style="ellipse;whiteSpace=wrap;html=1;" vertex="1" parent="IdGP9WswjfbOHASGG7qD-1">
                    <mxGeometry x="354" y="20" width="120" height="40" as="geometry"/>
                </mxCell>
                <mxCell id="IdGP9WswjfbOHASGG7qD-6" value="" style="edgeStyle=none;html=1;" edge="1" parent="IdGP9WswjfbOHASGG7qD-1" source="IdGP9WswjfbOHASGG7qD-3" target="IdGP9WswjfbOHASGG7qD-5">
                    <mxGeometry relative="1" as="geometry"/>
                </mxCell>
                <mxCell id="IdGP9WswjfbOHASGG7qD-3" value="&lt;div style=&quot;background-color: rgb(30 , 30 , 30) ; font-family: &amp;#34;droid sans mono&amp;#34; , &amp;#34;monospace&amp;#34; , monospace ; font-size: 14px ; line-height: 19px&quot;&gt;&lt;span style=&quot;color: rgb(212 , 212 , 212)&quot;&gt;&lt;span style=&quot;color: #9cdcfe&quot;&gt;arr&lt;/span&gt; = &lt;span style=&quot;color: #569cd6&quot;&gt;new&lt;/span&gt; &lt;span style=&quot;color: #569cd6&quot;&gt;string&lt;/span&gt;[0]&lt;/span&gt;&lt;div style=&quot;color: rgb(212 , 212 , 212) ; font-family: &amp;#34;droid sans mono&amp;#34; , &amp;#34;monospace&amp;#34; , monospace ; line-height: 19px&quot;&gt;&lt;span style=&quot;color: #9cdcfe&quot;&gt;ind&lt;/span&gt; = &lt;span style=&quot;color: #b5cea8&quot;&gt;0&lt;/span&gt;&lt;/div&gt;&lt;/div&gt;" style="whiteSpace=wrap;html=1;" vertex="1" parent="IdGP9WswjfbOHASGG7qD-1">
                    <mxGeometry x="304.25" y="90" width="219.5" height="60" as="geometry"/>
                </mxCell>
                <mxCell id="IdGP9WswjfbOHASGG7qD-8" value="" style="edgeStyle=none;html=1;" edge="1" parent="IdGP9WswjfbOHASGG7qD-1" source="IdGP9WswjfbOHASGG7qD-5" target="IdGP9WswjfbOHASGG7qD-7">
                    <mxGeometry relative="1" as="geometry"/>
                </mxCell>
                <mxCell id="IdGP9WswjfbOHASGG7qD-5" value="&lt;div style=&quot;color: rgb(212 , 212 , 212) ; background-color: rgb(30 , 30 , 30) ; font-family: &amp;#34;droid sans mono&amp;#34; , &amp;#34;monospace&amp;#34; , monospace ; font-size: 14px ; line-height: 19px&quot;&gt;&lt;span style=&quot;color: #c586c0&quot;&gt;while&lt;/span&gt; (&lt;span style=&quot;color: #569cd6&quot;&gt;true&lt;/span&gt;)&lt;/div&gt;" style="rhombus;whiteSpace=wrap;html=1;" vertex="1" parent="IdGP9WswjfbOHASGG7qD-1">
                    <mxGeometry x="329" y="200" width="170" height="80" as="geometry"/>
                </mxCell>
                <mxCell id="IdGP9WswjfbOHASGG7qD-11" value="" style="edgeStyle=none;html=1;" edge="1" parent="IdGP9WswjfbOHASGG7qD-1" source="IdGP9WswjfbOHASGG7qD-7" target="IdGP9WswjfbOHASGG7qD-10">
                    <mxGeometry relative="1" as="geometry"/>
                </mxCell>
                <mxCell id="IdGP9WswjfbOHASGG7qD-7" value="&lt;div style=&quot;color: rgb(212 , 212 , 212) ; background-color: rgb(30 , 30 , 30) ; font-family: &amp;#34;droid sans mono&amp;#34; , &amp;#34;monospace&amp;#34; , monospace ; font-size: 14px ; line-height: 19px&quot;&gt;&lt;span style=&quot;color: #ce9178&quot;&gt;Введите значение для добавления в список, для прекращения нажмите Enter: &lt;/span&gt;&lt;/div&gt;" style="shape=document;whiteSpace=wrap;html=1;boundedLbl=1;" vertex="1" parent="IdGP9WswjfbOHASGG7qD-1">
                    <mxGeometry x="249" y="310" width="330" height="80" as="geometry"/>
                </mxCell>
                <mxCell id="IdGP9WswjfbOHASGG7qD-13" value="" style="edgeStyle=none;html=1;" edge="1" parent="IdGP9WswjfbOHASGG7qD-1" source="IdGP9WswjfbOHASGG7qD-10" target="IdGP9WswjfbOHASGG7qD-12">
                    <mxGeometry relative="1" as="geometry"/>
                </mxCell>
                <mxCell id="IdGP9WswjfbOHASGG7qD-10" value="&lt;div style=&quot;color: rgb(212 , 212 , 212) ; background-color: rgb(30 , 30 , 30) ; font-family: &amp;#34;droid sans mono&amp;#34; , &amp;#34;monospace&amp;#34; , monospace ; font-size: 14px ; line-height: 19px&quot;&gt;&lt;span style=&quot;color: #9cdcfe&quot;&gt;tmpText&lt;/span&gt; = &lt;span style=&quot;color: #4ec9b0&quot;&gt;Console&lt;/span&gt;.&lt;span style=&quot;color: #dcdcaa&quot;&gt;ReadLine&lt;/span&gt;()&lt;/div&gt;" style="whiteSpace=wrap;html=1;" vertex="1" parent="IdGP9WswjfbOHASGG7qD-1">
                    <mxGeometry x="287" y="430" width="254" height="60" as="geometry"/>
                </mxCell>
                <mxCell id="IdGP9WswjfbOHASGG7qD-15" value="ДА" style="edgeStyle=none;html=1;" edge="1" parent="IdGP9WswjfbOHASGG7qD-1" source="IdGP9WswjfbOHASGG7qD-12" target="IdGP9WswjfbOHASGG7qD-14">
                    <mxGeometry relative="1" as="geometry"/>
                </mxCell>
                <mxCell id="IdGP9WswjfbOHASGG7qD-17" value="НЕТ" style="edgeStyle=none;html=1;" edge="1" parent="IdGP9WswjfbOHASGG7qD-1" source="IdGP9WswjfbOHASGG7qD-12" target="IdGP9WswjfbOHASGG7qD-16">
                    <mxGeometry relative="1" as="geometry">
                        <Array as="points">
                            <mxPoint x="66" y="570"/>
                        </Array>
                    </mxGeometry>
                </mxCell>
                <mxCell id="IdGP9WswjfbOHASGG7qD-12" value="&lt;div style=&quot;color: rgb(212 , 212 , 212) ; background-color: rgb(30 , 30 , 30) ; font-family: &amp;#34;droid sans mono&amp;#34; , &amp;#34;monospace&amp;#34; , monospace ; font-size: 14px ; line-height: 19px&quot;&gt;&lt;span style=&quot;color: #c586c0&quot;&gt;if&lt;/span&gt; (&lt;span style=&quot;color: #9cdcfe&quot;&gt;tmpText&lt;/span&gt; == &lt;span style=&quot;color: #569cd6&quot;&gt;string&lt;/span&gt;.&lt;span style=&quot;color: #9cdcfe&quot;&gt;Empty&lt;/span&gt;)&lt;/div&gt;" style="rhombus;whiteSpace=wrap;html=1;" vertex="1" parent="IdGP9WswjfbOHASGG7qD-1">
                    <mxGeometry x="258" y="530" width="312" height="80" as="geometry"/>
                </mxCell>
                <mxCell id="IdGP9WswjfbOHASGG7qD-25" value="" style="edgeStyle=none;html=1;" edge="1" parent="IdGP9WswjfbOHASGG7qD-1" source="IdGP9WswjfbOHASGG7qD-14" target="IdGP9WswjfbOHASGG7qD-24">
                    <mxGeometry relative="1" as="geometry"/>
                </mxCell>
                <mxCell id="IdGP9WswjfbOHASGG7qD-14" value="&lt;div style=&quot;color: rgb(212 , 212 , 212) ; background-color: rgb(30 , 30 , 30) ; font-family: &amp;#34;droid sans mono&amp;#34; , &amp;#34;monospace&amp;#34; , monospace ; font-size: 14px ; line-height: 19px&quot;&gt;&lt;span style=&quot;color: #c586c0&quot;&gt;break&lt;/span&gt;&lt;/div&gt;" style="whiteSpace=wrap;html=1;" vertex="1" parent="IdGP9WswjfbOHASGG7qD-1">
                    <mxGeometry x="354" y="650" width="120" height="60" as="geometry"/>
                </mxCell>
                <mxCell id="IdGP9WswjfbOHASGG7qD-19" value="ДА" style="edgeStyle=none;html=1;" edge="1" parent="IdGP9WswjfbOHASGG7qD-1" source="IdGP9WswjfbOHASGG7qD-16" target="IdGP9WswjfbOHASGG7qD-18">
                    <mxGeometry relative="1" as="geometry"/>
                </mxCell>
                <mxCell id="IdGP9WswjfbOHASGG7qD-22" value="НЕТ" style="edgeStyle=none;html=1;entryX=0.5;entryY=0;entryDx=0;entryDy=0;" edge="1" parent="IdGP9WswjfbOHASGG7qD-1" source="IdGP9WswjfbOHASGG7qD-16" target="IdGP9WswjfbOHASGG7qD-20">
                    <mxGeometry relative="1" as="geometry">
                        <Array as="points">
                            <mxPoint x="-200" y="680"/>
                        </Array>
                    </mxGeometry>
                </mxCell>
                <mxCell id="IdGP9WswjfbOHASGG7qD-16" value="&lt;div style=&quot;color: rgb(212 , 212 , 212) ; background-color: rgb(30 , 30 , 30) ; font-family: &amp;#34;droid sans mono&amp;#34; , &amp;#34;monospace&amp;#34; , monospace ; font-size: 14px ; line-height: 19px&quot;&gt;&lt;div style=&quot;font-family: &amp;#34;droid sans mono&amp;#34; , &amp;#34;monospace&amp;#34; , monospace ; line-height: 19px&quot;&gt;&lt;span style=&quot;color: #c586c0&quot;&gt;if&lt;/span&gt; (&lt;span style=&quot;color: #9cdcfe&quot;&gt;ind&lt;/span&gt; == &lt;span style=&quot;color: #9cdcfe&quot;&gt;arr&lt;/span&gt;.&lt;span style=&quot;color: #9cdcfe&quot;&gt;Length&lt;/span&gt;)&lt;/div&gt;&lt;/div&gt;" style="rhombus;whiteSpace=wrap;html=1;" vertex="1" parent="IdGP9WswjfbOHASGG7qD-1">
                    <mxGeometry x="-90" y="640" width="312" height="80" as="geometry"/>
                </mxCell>
                <mxCell id="IdGP9WswjfbOHASGG7qD-21" value="" style="edgeStyle=none;html=1;" edge="1" parent="IdGP9WswjfbOHASGG7qD-1" source="IdGP9WswjfbOHASGG7qD-18" target="IdGP9WswjfbOHASGG7qD-20">
                    <mxGeometry relative="1" as="geometry"/>
                </mxCell>
                <mxCell id="IdGP9WswjfbOHASGG7qD-18" value="&lt;div style=&quot;color: rgb(212 , 212 , 212) ; background-color: rgb(30 , 30 , 30) ; font-family: &amp;#34;droid sans mono&amp;#34; , &amp;#34;monospace&amp;#34; , monospace ; font-size: 14px ; line-height: 19px&quot;&gt;&lt;span style=&quot;color: #9cdcfe&quot;&gt;arr&lt;/span&gt; = &lt;span style=&quot;color: #dcdcaa&quot;&gt;GrowArr&lt;/span&gt;(&lt;span style=&quot;color: #9cdcfe&quot;&gt;arr&lt;/span&gt;)&lt;/div&gt;" style="whiteSpace=wrap;html=1;" vertex="1" parent="IdGP9WswjfbOHASGG7qD-1">
                    <mxGeometry x="-44" y="760" width="220" height="60" as="geometry"/>
                </mxCell>
                <mxCell id="IdGP9WswjfbOHASGG7qD-23" style="edgeStyle=none;html=1;entryX=0;entryY=0.5;entryDx=0;entryDy=0;" edge="1" parent="IdGP9WswjfbOHASGG7qD-1" source="IdGP9WswjfbOHASGG7qD-20" target="IdGP9WswjfbOHASGG7qD-5">
                    <mxGeometry relative="1" as="geometry">
                        <Array as="points">
                            <mxPoint x="-340" y="790"/>
                            <mxPoint x="-340" y="240"/>
                        </Array>
                    </mxGeometry>
                </mxCell>
                <mxCell id="IdGP9WswjfbOHASGG7qD-20" value="&lt;div style=&quot;color: rgb(212 , 212 , 212) ; background-color: rgb(30 , 30 , 30) ; font-family: &amp;#34;droid sans mono&amp;#34; , &amp;#34;monospace&amp;#34; , monospace ; font-size: 14px ; line-height: 19px&quot;&gt;&lt;div&gt;&lt;span style=&quot;color: #9cdcfe&quot;&gt;arr&lt;/span&gt;[&lt;span style=&quot;color: #9cdcfe&quot;&gt;ind&lt;/span&gt;] = &lt;span style=&quot;color: #9cdcfe&quot;&gt;tmpText&lt;/span&gt;;&lt;/div&gt;&lt;div&gt;                    &lt;span style=&quot;color: #9cdcfe&quot;&gt;ind&lt;/span&gt;++&lt;/div&gt;&lt;/div&gt;" style="whiteSpace=wrap;html=1;" vertex="1" parent="IdGP9WswjfbOHASGG7qD-1">
                    <mxGeometry x="-290" y="760" width="180" height="60" as="geometry"/>
                </mxCell>
                <mxCell id="IdGP9WswjfbOHASGG7qD-24" value="&lt;div style=&quot;color: rgb(212 , 212 , 212) ; background-color: rgb(30 , 30 , 30) ; font-family: &amp;#34;droid sans mono&amp;#34; , &amp;#34;monospace&amp;#34; , monospace ; font-size: 14px ; line-height: 19px&quot;&gt;&lt;span style=&quot;color: #c586c0&quot;&gt;return&lt;/span&gt; &lt;span style=&quot;color: #9cdcfe&quot;&gt;arr&lt;/span&gt;&lt;/div&gt;" style="ellipse;whiteSpace=wrap;html=1;" vertex="1" parent="IdGP9WswjfbOHASGG7qD-1">
                    <mxGeometry x="354" y="790" width="120" height="60" as="geometry"/>
                </mxCell>
            </root>
        </mxGraphModel>
    </diagram>
    <diagram id="qdSK_DbGoXColWU_7z3a" name="GrowArr">
        <mxGraphModel dx="1684" dy="1131" grid="1" gridSize="10" guides="1" tooltips="1" connect="1" arrows="1" fold="1" page="1" pageScale="1" pageWidth="827" pageHeight="1169" math="0" shadow="0">
            <root>
                <mxCell id="yvlfccA8Mr3zg1K1fRMv-0"/>
                <mxCell id="yvlfccA8Mr3zg1K1fRMv-1" parent="yvlfccA8Mr3zg1K1fRMv-0"/>
                <mxCell id="8MInNl2Cdp3XCN3Gyr34-5" style="edgeStyle=none;html=1;entryX=0.5;entryY=0;entryDx=0;entryDy=0;" edge="1" parent="yvlfccA8Mr3zg1K1fRMv-1" source="8MInNl2Cdp3XCN3Gyr34-0" target="8MInNl2Cdp3XCN3Gyr34-1">
                    <mxGeometry relative="1" as="geometry"/>
                </mxCell>
                <mxCell id="8MInNl2Cdp3XCN3Gyr34-0" value="&lt;div style=&quot;color: rgb(212 , 212 , 212) ; background-color: rgb(30 , 30 , 30) ; font-family: &amp;#34;droid sans mono&amp;#34; , &amp;#34;monospace&amp;#34; , monospace ; font-size: 14px ; line-height: 19px&quot;&gt;&lt;span style=&quot;color: #dcdcaa&quot;&gt;GrowArr&lt;/span&gt;&lt;/div&gt;" style="ellipse;whiteSpace=wrap;html=1;" vertex="1" parent="yvlfccA8Mr3zg1K1fRMv-1">
                    <mxGeometry x="354" y="20" width="120" height="80" as="geometry"/>
                </mxCell>
                <mxCell id="8MInNl2Cdp3XCN3Gyr34-6" style="edgeStyle=none;html=1;entryX=0.5;entryY=0;entryDx=0;entryDy=0;" edge="1" parent="yvlfccA8Mr3zg1K1fRMv-1" source="8MInNl2Cdp3XCN3Gyr34-1" target="8MInNl2Cdp3XCN3Gyr34-2">
                    <mxGeometry relative="1" as="geometry"/>
                </mxCell>
                <mxCell id="8MInNl2Cdp3XCN3Gyr34-1" value="&lt;div style=&quot;color: rgb(212 , 212 , 212) ; background-color: rgb(30 , 30 , 30) ; font-family: &amp;#34;droid sans mono&amp;#34; , &amp;#34;monospace&amp;#34; , monospace ; font-size: 14px ; line-height: 19px&quot;&gt;&lt;span style=&quot;color: #569cd6&quot;&gt;string&lt;/span&gt;[] &lt;span style=&quot;color: #9cdcfe&quot;&gt;oldArr&lt;/span&gt;&lt;/div&gt;&lt;div style=&quot;color: rgb(212 , 212 , 212) ; background-color: rgb(30 , 30 , 30) ; font-family: &amp;#34;droid sans mono&amp;#34; , &amp;#34;monospace&amp;#34; , monospace ; font-size: 14px ; line-height: 19px&quot;&gt;&lt;div style=&quot;font-family: &amp;#34;droid sans mono&amp;#34; , &amp;#34;monospace&amp;#34; , monospace ; line-height: 19px&quot;&gt;&lt;div style=&quot;font-family: &amp;#34;droid sans mono&amp;#34; , &amp;#34;monospace&amp;#34; , monospace ; line-height: 19px&quot;&gt;&lt;span style=&quot;color: #569cd6&quot;&gt;string&lt;/span&gt;[] &lt;span style=&quot;color: #9cdcfe&quot;&gt;newArr&lt;/span&gt; = &lt;span style=&quot;color: #569cd6&quot;&gt;new&lt;/span&gt; &lt;span style=&quot;color: #569cd6&quot;&gt;string&lt;/span&gt;[&lt;span style=&quot;color: #9cdcfe&quot;&gt;oldArr&lt;/span&gt;.&lt;span style=&quot;color: #9cdcfe&quot;&gt;Length&lt;/span&gt; + &lt;span style=&quot;color: #b5cea8&quot;&gt;1&lt;/span&gt;]&lt;/div&gt;&lt;/div&gt;&lt;/div&gt;" style="rounded=0;whiteSpace=wrap;html=1;" vertex="1" parent="yvlfccA8Mr3zg1K1fRMv-1">
                    <mxGeometry x="213" y="140" width="401" height="110" as="geometry"/>
                </mxCell>
                <mxCell id="8MInNl2Cdp3XCN3Gyr34-7" style="edgeStyle=none;html=1;entryX=0.5;entryY=0;entryDx=0;entryDy=0;" edge="1" parent="yvlfccA8Mr3zg1K1fRMv-1" source="8MInNl2Cdp3XCN3Gyr34-2" target="8MInNl2Cdp3XCN3Gyr34-3">
                    <mxGeometry relative="1" as="geometry"/>
                </mxCell>
                <mxCell id="8MInNl2Cdp3XCN3Gyr34-9" style="edgeStyle=none;html=1;" edge="1" parent="yvlfccA8Mr3zg1K1fRMv-1" source="8MInNl2Cdp3XCN3Gyr34-2" target="8MInNl2Cdp3XCN3Gyr34-4">
                    <mxGeometry relative="1" as="geometry">
                        <Array as="points">
                            <mxPoint x="710" y="335"/>
                            <mxPoint x="710" y="510"/>
                            <mxPoint x="414" y="510"/>
                        </Array>
                    </mxGeometry>
                </mxCell>
                <mxCell id="8MInNl2Cdp3XCN3Gyr34-2" value="&lt;div style=&quot;color: rgb(212 , 212 , 212) ; background-color: rgb(30 , 30 , 30) ; font-family: &amp;#34;droid sans mono&amp;#34; , &amp;#34;monospace&amp;#34; , monospace ; font-size: 14px ; line-height: 19px&quot;&gt;&lt;span style=&quot;color: #c586c0&quot;&gt;for&lt;/span&gt; (&lt;span style=&quot;color: #569cd6&quot;&gt;int&lt;/span&gt; &lt;span style=&quot;color: #9cdcfe&quot;&gt;i&lt;/span&gt; = &lt;span style=&quot;color: #b5cea8&quot;&gt;0&lt;/span&gt;; &lt;span style=&quot;color: #9cdcfe&quot;&gt;i&lt;/span&gt; &amp;lt; &lt;span style=&quot;color: #9cdcfe&quot;&gt;oldArr&lt;/span&gt;.&lt;span style=&quot;color: #9cdcfe&quot;&gt;Length&lt;/span&gt;; &lt;span style=&quot;color: #9cdcfe&quot;&gt;i&lt;/span&gt;++)&lt;/div&gt;" style="rhombus;whiteSpace=wrap;html=1;" vertex="1" parent="yvlfccA8Mr3zg1K1fRMv-1">
                    <mxGeometry x="224" y="290" width="379" height="90" as="geometry"/>
                </mxCell>
                <mxCell id="8MInNl2Cdp3XCN3Gyr34-8" style="edgeStyle=none;html=1;entryX=0;entryY=0.5;entryDx=0;entryDy=0;" edge="1" parent="yvlfccA8Mr3zg1K1fRMv-1" source="8MInNl2Cdp3XCN3Gyr34-3" target="8MInNl2Cdp3XCN3Gyr34-2">
                    <mxGeometry relative="1" as="geometry">
                        <Array as="points">
                            <mxPoint x="224" y="460"/>
                        </Array>
                    </mxGeometry>
                </mxCell>
                <mxCell id="8MInNl2Cdp3XCN3Gyr34-3" value="&lt;div style=&quot;color: rgb(212 , 212 , 212) ; background-color: rgb(30 , 30 , 30) ; font-family: &amp;#34;droid sans mono&amp;#34; , &amp;#34;monospace&amp;#34; , monospace ; font-size: 14px ; line-height: 19px&quot;&gt;&lt;span style=&quot;color: #9cdcfe&quot;&gt;newArr&lt;/span&gt;[&lt;span style=&quot;color: #9cdcfe&quot;&gt;i&lt;/span&gt;]=&lt;span style=&quot;color: #9cdcfe&quot;&gt;oldArr&lt;/span&gt;[&lt;span style=&quot;color: #9cdcfe&quot;&gt;i&lt;/span&gt;]&lt;/div&gt;" style="rounded=0;whiteSpace=wrap;html=1;" vertex="1" parent="yvlfccA8Mr3zg1K1fRMv-1">
                    <mxGeometry x="319" y="430" width="190" height="60" as="geometry"/>
                </mxCell>
                <mxCell id="8MInNl2Cdp3XCN3Gyr34-4" value="&lt;div style=&quot;color: rgb(212 , 212 , 212) ; background-color: rgb(30 , 30 , 30) ; font-family: &amp;#34;droid sans mono&amp;#34; , &amp;#34;monospace&amp;#34; , monospace ; font-size: 14px ; line-height: 19px&quot;&gt;&lt;span style=&quot;color: #c586c0&quot;&gt;return&lt;/span&gt; &lt;span style=&quot;color: #9cdcfe&quot;&gt;newArr&lt;/span&gt;&lt;/div&gt;" style="ellipse;whiteSpace=wrap;html=1;" vertex="1" parent="yvlfccA8Mr3zg1K1fRMv-1">
                    <mxGeometry x="354" y="544.5" width="120" height="80" as="geometry"/>
                </mxCell>
            </root>
        </mxGraphModel>
    </diagram>
    <diagram id="ZjbFQI9mFpXed3YNK-N6" name="ShowArr">
        <mxGraphModel dx="1684" dy="1131" grid="1" gridSize="10" guides="1" tooltips="1" connect="1" arrows="1" fold="1" page="1" pageScale="1" pageWidth="827" pageHeight="1169" math="0" shadow="0">
            <root>
                <mxCell id="5oMtp3_YfUW9I93o7gfp-0"/>
                <mxCell id="5oMtp3_YfUW9I93o7gfp-1" parent="5oMtp3_YfUW9I93o7gfp-0"/>
                <mxCell id="5oMtp3_YfUW9I93o7gfp-8" style="edgeStyle=none;html=1;entryX=0.5;entryY=0;entryDx=0;entryDy=0;" edge="1" parent="5oMtp3_YfUW9I93o7gfp-1" source="5oMtp3_YfUW9I93o7gfp-2" target="5oMtp3_YfUW9I93o7gfp-3">
                    <mxGeometry relative="1" as="geometry"/>
                </mxCell>
                <mxCell id="5oMtp3_YfUW9I93o7gfp-2" value="&lt;div style=&quot;color: rgb(212 , 212 , 212) ; background-color: rgb(30 , 30 , 30) ; font-family: &amp;#34;droid sans mono&amp;#34; , &amp;#34;monospace&amp;#34; , monospace ; font-size: 14px ; line-height: 19px&quot;&gt;&lt;div style=&quot;font-family: &amp;#34;droid sans mono&amp;#34; , &amp;#34;monospace&amp;#34; , monospace ; line-height: 19px&quot;&gt;&lt;span style=&quot;color: #dcdcaa&quot;&gt;ShowArr&lt;/span&gt;(&lt;span style=&quot;color: #569cd6&quot;&gt;string&lt;/span&gt;[] &lt;span style=&quot;color: #9cdcfe&quot;&gt;arr&lt;/span&gt;)&lt;/div&gt;&lt;/div&gt;" style="ellipse;whiteSpace=wrap;html=1;" vertex="1" parent="5oMtp3_YfUW9I93o7gfp-1">
                    <mxGeometry x="322" y="30" width="184" height="70" as="geometry"/>
                </mxCell>
                <mxCell id="5oMtp3_YfUW9I93o7gfp-9" style="edgeStyle=none;html=1;entryX=0.5;entryY=0;entryDx=0;entryDy=0;" edge="1" parent="5oMtp3_YfUW9I93o7gfp-1" source="5oMtp3_YfUW9I93o7gfp-3" target="5oMtp3_YfUW9I93o7gfp-4">
                    <mxGeometry relative="1" as="geometry"/>
                </mxCell>
                <mxCell id="5oMtp3_YfUW9I93o7gfp-14" style="edgeStyle=none;html=1;" edge="1" parent="5oMtp3_YfUW9I93o7gfp-1" source="5oMtp3_YfUW9I93o7gfp-3" target="5oMtp3_YfUW9I93o7gfp-7">
                    <mxGeometry relative="1" as="geometry">
                        <Array as="points">
                            <mxPoint x="770" y="180"/>
                            <mxPoint x="770" y="490"/>
                            <mxPoint x="414" y="490"/>
                        </Array>
                    </mxGeometry>
                </mxCell>
                <mxCell id="5oMtp3_YfUW9I93o7gfp-3" value="&lt;div style=&quot;color: rgb(212 , 212 , 212) ; background-color: rgb(30 , 30 , 30) ; font-family: &amp;#34;droid sans mono&amp;#34; , &amp;#34;monospace&amp;#34; , monospace ; font-size: 14px ; line-height: 19px&quot;&gt;&lt;span style=&quot;color: #c586c0&quot;&gt;for&lt;/span&gt; (&lt;span style=&quot;color: #569cd6&quot;&gt;int&lt;/span&gt; &lt;span style=&quot;color: #9cdcfe&quot;&gt;i&lt;/span&gt; = &lt;span style=&quot;color: #b5cea8&quot;&gt;0&lt;/span&gt;; &lt;span style=&quot;color: #9cdcfe&quot;&gt;i&lt;/span&gt; &amp;lt; &lt;span style=&quot;color: #9cdcfe&quot;&gt;arr&lt;/span&gt;.&lt;span style=&quot;color: #9cdcfe&quot;&gt;Length&lt;/span&gt;; &lt;span style=&quot;color: #9cdcfe&quot;&gt;i&lt;/span&gt;++)&lt;/div&gt;" style="rhombus;whiteSpace=wrap;html=1;" vertex="1" parent="5oMtp3_YfUW9I93o7gfp-1">
                    <mxGeometry x="224.5" y="140" width="379" height="80" as="geometry"/>
                </mxCell>
                <mxCell id="5oMtp3_YfUW9I93o7gfp-10" value="YES" style="edgeStyle=none;html=1;entryX=0.456;entryY=-0.06;entryDx=0;entryDy=0;entryPerimeter=0;" edge="1" parent="5oMtp3_YfUW9I93o7gfp-1" source="5oMtp3_YfUW9I93o7gfp-4" target="5oMtp3_YfUW9I93o7gfp-5">
                    <mxGeometry relative="1" as="geometry">
                        <Array as="points">
                            <mxPoint x="213" y="320"/>
                        </Array>
                    </mxGeometry>
                </mxCell>
                <mxCell id="5oMtp3_YfUW9I93o7gfp-11" value="NO" style="edgeStyle=none;html=1;entryX=0.5;entryY=0;entryDx=0;entryDy=0;" edge="1" parent="5oMtp3_YfUW9I93o7gfp-1" source="5oMtp3_YfUW9I93o7gfp-4" target="5oMtp3_YfUW9I93o7gfp-6">
                    <mxGeometry relative="1" as="geometry">
                        <Array as="points">
                            <mxPoint x="615" y="320"/>
                        </Array>
                    </mxGeometry>
                </mxCell>
                <mxCell id="5oMtp3_YfUW9I93o7gfp-4" value="&lt;div style=&quot;color: rgb(212 , 212 , 212) ; background-color: rgb(30 , 30 , 30) ; font-family: &amp;#34;droid sans mono&amp;#34; , &amp;#34;monospace&amp;#34; , monospace ; font-size: 14px ; line-height: 19px&quot;&gt;&lt;span style=&quot;color: #c586c0&quot;&gt;if&lt;/span&gt; (&lt;span style=&quot;color: #9cdcfe&quot;&gt;i&lt;/span&gt; &amp;lt; &lt;span style=&quot;color: #9cdcfe&quot;&gt;arr&lt;/span&gt;.&lt;span style=&quot;color: #9cdcfe&quot;&gt;Length&lt;/span&gt;-&lt;span style=&quot;color: #b5cea8&quot;&gt;1&lt;/span&gt;)&lt;/div&gt;" style="rhombus;whiteSpace=wrap;html=1;" vertex="1" parent="5oMtp3_YfUW9I93o7gfp-1">
                    <mxGeometry x="311" y="280" width="206" height="80" as="geometry"/>
                </mxCell>
                <mxCell id="5oMtp3_YfUW9I93o7gfp-12" style="edgeStyle=none;html=1;entryX=0;entryY=0.5;entryDx=0;entryDy=0;" edge="1" parent="5oMtp3_YfUW9I93o7gfp-1" source="5oMtp3_YfUW9I93o7gfp-5" target="5oMtp3_YfUW9I93o7gfp-3">
                    <mxGeometry relative="1" as="geometry">
                        <mxPoint x="420" y="440" as="targetPoint"/>
                        <Array as="points">
                            <mxPoint x="220" y="440"/>
                            <mxPoint x="70" y="440"/>
                            <mxPoint x="70" y="180"/>
                        </Array>
                    </mxGeometry>
                </mxCell>
                <mxCell id="5oMtp3_YfUW9I93o7gfp-5" value="&lt;div style=&quot;color: rgb(212 , 212 , 212) ; background-color: rgb(30 , 30 , 30) ; font-family: &amp;#34;droid sans mono&amp;#34; , &amp;#34;monospace&amp;#34; , monospace ; font-size: 14px ; line-height: 19px&quot;&gt;&lt;span style=&quot;color: #ce9178&quot;&gt;&quot;&lt;/span&gt;&lt;span style=&quot;color: #ce9178&quot;&gt;{&lt;/span&gt;&lt;span style=&quot;color: #9cdcfe&quot;&gt;arr&lt;/span&gt;&lt;span style=&quot;color: #ce9178&quot;&gt;[&lt;/span&gt;&lt;span style=&quot;color: #9cdcfe&quot;&gt;i&lt;/span&gt;&lt;span style=&quot;color: #ce9178&quot;&gt;]}&lt;/span&gt;&lt;span style=&quot;color: #ce9178&quot;&gt; -&amp;gt; &lt;/span&gt;&lt;span style=&quot;color: #ce9178&quot;&gt;&quot;&lt;/span&gt;&lt;/div&gt;" style="shape=document;whiteSpace=wrap;html=1;boundedLbl=1;" vertex="1" parent="5oMtp3_YfUW9I93o7gfp-1">
                    <mxGeometry x="140" y="370" width="160" height="50" as="geometry"/>
                </mxCell>
                <mxCell id="5oMtp3_YfUW9I93o7gfp-13" style="edgeStyle=none;html=1;" edge="1" parent="5oMtp3_YfUW9I93o7gfp-1" source="5oMtp3_YfUW9I93o7gfp-6">
                    <mxGeometry relative="1" as="geometry">
                        <mxPoint x="220" y="180" as="targetPoint"/>
                        <Array as="points">
                            <mxPoint x="615" y="440"/>
                            <mxPoint x="70" y="440"/>
                            <mxPoint x="70" y="180"/>
                        </Array>
                    </mxGeometry>
                </mxCell>
                <mxCell id="5oMtp3_YfUW9I93o7gfp-6" value="&lt;div style=&quot;color: rgb(212 , 212 , 212) ; background-color: rgb(30 , 30 , 30) ; font-family: &amp;#34;droid sans mono&amp;#34; , &amp;#34;monospace&amp;#34; , monospace ; font-size: 14px ; line-height: 19px&quot;&gt;&lt;span style=&quot;color: #ce9178&quot;&gt;&quot;&lt;/span&gt;&lt;span style=&quot;color: #ce9178&quot;&gt;{&lt;/span&gt;&lt;span style=&quot;color: #9cdcfe&quot;&gt;arr&lt;/span&gt;&lt;span style=&quot;color: #ce9178&quot;&gt;[&lt;/span&gt;&lt;span style=&quot;color: #9cdcfe&quot;&gt;i&lt;/span&gt;&lt;span style=&quot;color: #ce9178&quot;&gt;]}&lt;/span&gt;&lt;span style=&quot;color: #d7ba7d&quot;&gt;\n&lt;/span&gt;&lt;span style=&quot;color: #ce9178&quot;&gt;&quot;&lt;/span&gt;&lt;/div&gt;" style="shape=document;whiteSpace=wrap;html=1;boundedLbl=1;" vertex="1" parent="5oMtp3_YfUW9I93o7gfp-1">
                    <mxGeometry x="540" y="370" width="150" height="50" as="geometry"/>
                </mxCell>
                <mxCell id="5oMtp3_YfUW9I93o7gfp-7" value="end" style="ellipse;whiteSpace=wrap;html=1;" vertex="1" parent="5oMtp3_YfUW9I93o7gfp-1">
                    <mxGeometry x="354" y="545" width="120" height="80" as="geometry"/>
                </mxCell>
            </root>
        </mxGraphModel>
    </diagram>
    <diagram id="buQQNFuGi7ggNzt-E6v5" name="ChoiceValuesInArr">
        <mxGraphModel dx="1684" dy="1131" grid="1" gridSize="10" guides="1" tooltips="1" connect="1" arrows="1" fold="1" page="1" pageScale="1" pageWidth="827" pageHeight="1169" math="0" shadow="0">
            <root>
                <mxCell id="Rmcl3d-cK1_simxLNgVq-0"/>
                <mxCell id="Rmcl3d-cK1_simxLNgVq-1" parent="Rmcl3d-cK1_simxLNgVq-0"/>
                <mxCell id="Rmcl3d-cK1_simxLNgVq-11" style="edgeStyle=none;html=1;entryX=0.5;entryY=0;entryDx=0;entryDy=0;" edge="1" parent="Rmcl3d-cK1_simxLNgVq-1" source="Rmcl3d-cK1_simxLNgVq-2" target="Rmcl3d-cK1_simxLNgVq-3">
                    <mxGeometry relative="1" as="geometry"/>
                </mxCell>
                <mxCell id="Rmcl3d-cK1_simxLNgVq-2" value="&lt;div style=&quot;color: rgb(212 , 212 , 212) ; background-color: rgb(30 , 30 , 30) ; font-family: &amp;#34;droid sans mono&amp;#34; , &amp;#34;monospace&amp;#34; , monospace ; font-size: 14px ; line-height: 19px&quot;&gt;&lt;span style=&quot;color: #dcdcaa&quot;&gt;ChoiceValuesInArr&lt;/span&gt;(&lt;span style=&quot;color: #569cd6&quot;&gt;string&lt;/span&gt;[] &lt;span style=&quot;color: #9cdcfe&quot;&gt;arr&lt;/span&gt;, &lt;span style=&quot;color: #569cd6&quot;&gt;int&lt;/span&gt; &lt;span style=&quot;color: #9cdcfe&quot;&gt;choiceLength&lt;/span&gt;)&lt;/div&gt;" style="ellipse;whiteSpace=wrap;html=1;" vertex="1" parent="Rmcl3d-cK1_simxLNgVq-1">
                    <mxGeometry x="196" y="40" width="436" height="80" as="geometry"/>
                </mxCell>
                <mxCell id="Rmcl3d-cK1_simxLNgVq-12" style="edgeStyle=none;html=1;entryX=0.5;entryY=0;entryDx=0;entryDy=0;" edge="1" parent="Rmcl3d-cK1_simxLNgVq-1" source="Rmcl3d-cK1_simxLNgVq-3" target="Rmcl3d-cK1_simxLNgVq-4">
                    <mxGeometry relative="1" as="geometry"/>
                </mxCell>
                <mxCell id="Rmcl3d-cK1_simxLNgVq-3" value="&lt;div style=&quot;color: rgb(212 , 212 , 212) ; background-color: rgb(30 , 30 , 30) ; font-family: &amp;#34;droid sans mono&amp;#34; , &amp;#34;monospace&amp;#34; , monospace ; font-size: 14px ; line-height: 19px&quot;&gt;&lt;div&gt;&lt;span style=&quot;color: #569cd6&quot;&gt;string&lt;/span&gt;[] &lt;span style=&quot;color: #9cdcfe&quot;&gt;newArr&lt;/span&gt; = &lt;span style=&quot;color: #569cd6&quot;&gt;new&lt;/span&gt; &lt;span style=&quot;color: #569cd6&quot;&gt;string&lt;/span&gt;[0]&lt;/div&gt;&lt;div&gt;            &lt;span style=&quot;color: #569cd6&quot;&gt;int&lt;/span&gt; &lt;span style=&quot;color: #9cdcfe&quot;&gt;ind&lt;/span&gt; = &lt;span style=&quot;color: #b5cea8&quot;&gt;0&lt;/span&gt;&lt;/div&gt;&lt;/div&gt;" style="rounded=0;whiteSpace=wrap;html=1;" vertex="1" parent="Rmcl3d-cK1_simxLNgVq-1">
                    <mxGeometry x="109" y="170" width="610" height="60" as="geometry"/>
                </mxCell>
                <mxCell id="Rmcl3d-cK1_simxLNgVq-13" style="edgeStyle=none;html=1;entryX=0.5;entryY=0;entryDx=0;entryDy=0;" edge="1" parent="Rmcl3d-cK1_simxLNgVq-1" source="Rmcl3d-cK1_simxLNgVq-4" target="Rmcl3d-cK1_simxLNgVq-5">
                    <mxGeometry relative="1" as="geometry"/>
                </mxCell>
                <mxCell id="Rmcl3d-cK1_simxLNgVq-20" style="edgeStyle=none;html=1;" edge="1" parent="Rmcl3d-cK1_simxLNgVq-1" source="Rmcl3d-cK1_simxLNgVq-4" target="Rmcl3d-cK1_simxLNgVq-10">
                    <mxGeometry relative="1" as="geometry">
                        <Array as="points">
                            <mxPoint x="810" y="320"/>
                            <mxPoint x="810" y="930"/>
                            <mxPoint x="410" y="930"/>
                        </Array>
                    </mxGeometry>
                </mxCell>
                <mxCell id="Rmcl3d-cK1_simxLNgVq-4" value="&lt;div style=&quot;color: rgb(212 , 212 , 212) ; background-color: rgb(30 , 30 , 30) ; font-family: &amp;#34;droid sans mono&amp;#34; , &amp;#34;monospace&amp;#34; , monospace ; font-size: 14px ; line-height: 19px&quot;&gt;&lt;span style=&quot;color: #c586c0&quot;&gt;for&lt;/span&gt; (&lt;span style=&quot;color: #569cd6&quot;&gt;int&lt;/span&gt; &lt;span style=&quot;color: #9cdcfe&quot;&gt;i&lt;/span&gt; = &lt;span style=&quot;color: #b5cea8&quot;&gt;0&lt;/span&gt; ; &lt;span style=&quot;color: #9cdcfe&quot;&gt;i&lt;/span&gt; &amp;lt; &lt;span style=&quot;color: #9cdcfe&quot;&gt;arr&lt;/span&gt;.&lt;span style=&quot;color: #9cdcfe&quot;&gt;Length&lt;/span&gt;; &lt;span style=&quot;color: #9cdcfe&quot;&gt;i&lt;/span&gt;++)&lt;/div&gt;" style="rhombus;whiteSpace=wrap;html=1;" vertex="1" parent="Rmcl3d-cK1_simxLNgVq-1">
                    <mxGeometry x="231" y="280" width="366" height="80" as="geometry"/>
                </mxCell>
                <mxCell id="Rmcl3d-cK1_simxLNgVq-14" value="YES" style="edgeStyle=none;html=1;entryX=0.5;entryY=0;entryDx=0;entryDy=0;" edge="1" parent="Rmcl3d-cK1_simxLNgVq-1" source="Rmcl3d-cK1_simxLNgVq-5" target="Rmcl3d-cK1_simxLNgVq-6">
                    <mxGeometry relative="1" as="geometry"/>
                </mxCell>
                <mxCell id="Rmcl3d-cK1_simxLNgVq-19" value="NO" style="edgeStyle=none;html=1;" edge="1" parent="Rmcl3d-cK1_simxLNgVq-1" source="Rmcl3d-cK1_simxLNgVq-5">
                    <mxGeometry x="-0.9575" relative="1" as="geometry">
                        <mxPoint x="230" y="320" as="targetPoint"/>
                        <Array as="points">
                            <mxPoint x="780" y="440"/>
                            <mxPoint x="780" y="880"/>
                            <mxPoint x="30" y="880"/>
                            <mxPoint x="30" y="320"/>
                        </Array>
                        <mxPoint as="offset"/>
                    </mxGeometry>
                </mxCell>
                <mxCell id="Rmcl3d-cK1_simxLNgVq-5" value="&lt;div style=&quot;color: rgb(212 , 212 , 212) ; background-color: rgb(30 , 30 , 30) ; font-family: &amp;#34;droid sans mono&amp;#34; , &amp;#34;monospace&amp;#34; , monospace ; font-size: 14px ; line-height: 19px&quot;&gt;&lt;span style=&quot;color: #c586c0&quot;&gt;if&lt;/span&gt; (&lt;span style=&quot;color: #9cdcfe&quot;&gt;arr&lt;/span&gt;[&lt;span style=&quot;color: #9cdcfe&quot;&gt;i&lt;/span&gt;].&lt;span style=&quot;color: #9cdcfe&quot;&gt;Length&lt;/span&gt; &amp;lt;= &lt;span style=&quot;color: #9cdcfe&quot;&gt;choiceLength&lt;/span&gt;)&lt;/div&gt;" style="rhombus;whiteSpace=wrap;html=1;" vertex="1" parent="Rmcl3d-cK1_simxLNgVq-1">
                    <mxGeometry x="121" y="400" width="586" height="80" as="geometry"/>
                </mxCell>
                <mxCell id="Rmcl3d-cK1_simxLNgVq-15" value="YES" style="edgeStyle=none;html=1;entryX=0.5;entryY=0;entryDx=0;entryDy=0;" edge="1" parent="Rmcl3d-cK1_simxLNgVq-1" source="Rmcl3d-cK1_simxLNgVq-6" target="Rmcl3d-cK1_simxLNgVq-8">
                    <mxGeometry relative="1" as="geometry">
                        <Array as="points">
                            <mxPoint x="226" y="570"/>
                        </Array>
                    </mxGeometry>
                </mxCell>
                <mxCell id="Rmcl3d-cK1_simxLNgVq-16" value="NO" style="edgeStyle=none;html=1;entryX=0.5;entryY=0;entryDx=0;entryDy=0;" edge="1" parent="Rmcl3d-cK1_simxLNgVq-1" source="Rmcl3d-cK1_simxLNgVq-6" target="Rmcl3d-cK1_simxLNgVq-9">
                    <mxGeometry relative="1" as="geometry"/>
                </mxCell>
                <mxCell id="Rmcl3d-cK1_simxLNgVq-6" value="&lt;div style=&quot;color: rgb(212 , 212 , 212) ; background-color: rgb(30 , 30 , 30) ; font-family: &amp;#34;droid sans mono&amp;#34; , &amp;#34;monospace&amp;#34; , monospace ; font-size: 14px ; line-height: 19px&quot;&gt;&lt;span style=&quot;color: #c586c0&quot;&gt;if&lt;/span&gt; (&lt;span style=&quot;color: #9cdcfe&quot;&gt;ind&lt;/span&gt; == &lt;span style=&quot;color: #9cdcfe&quot;&gt;newArr&lt;/span&gt;.&lt;span style=&quot;color: #9cdcfe&quot;&gt;Length&lt;/span&gt;)&lt;/div&gt;" style="rhombus;whiteSpace=wrap;html=1;" vertex="1" parent="Rmcl3d-cK1_simxLNgVq-1">
                    <mxGeometry x="286" y="530" width="256" height="80" as="geometry"/>
                </mxCell>
                <mxCell id="Rmcl3d-cK1_simxLNgVq-17" style="edgeStyle=none;html=1;entryX=0;entryY=0.5;entryDx=0;entryDy=0;" edge="1" parent="Rmcl3d-cK1_simxLNgVq-1" source="Rmcl3d-cK1_simxLNgVq-8" target="Rmcl3d-cK1_simxLNgVq-9">
                    <mxGeometry relative="1" as="geometry">
                        <Array as="points">
                            <mxPoint x="226" y="800"/>
                        </Array>
                    </mxGeometry>
                </mxCell>
                <mxCell id="Rmcl3d-cK1_simxLNgVq-8" value="&lt;div style=&quot;color: rgb(212 , 212 , 212) ; background-color: rgb(30 , 30 , 30) ; font-family: &amp;#34;droid sans mono&amp;#34; , &amp;#34;monospace&amp;#34; , monospace ; font-size: 14px ; line-height: 19px&quot;&gt;&lt;span style=&quot;color: #9cdcfe&quot;&gt;newArr&lt;/span&gt; = &lt;span style=&quot;color: #dcdcaa&quot;&gt;GrowArr&lt;/span&gt;(&lt;span style=&quot;color: #9cdcfe&quot;&gt;newArr&lt;/span&gt;)&lt;/div&gt;" style="rounded=0;whiteSpace=wrap;html=1;" vertex="1" parent="Rmcl3d-cK1_simxLNgVq-1">
                    <mxGeometry x="109" y="640" width="234" height="60" as="geometry"/>
                </mxCell>
                <mxCell id="Rmcl3d-cK1_simxLNgVq-18" style="edgeStyle=none;html=1;entryX=0;entryY=0.5;entryDx=0;entryDy=0;" edge="1" parent="Rmcl3d-cK1_simxLNgVq-1" source="Rmcl3d-cK1_simxLNgVq-9" target="Rmcl3d-cK1_simxLNgVq-4">
                    <mxGeometry relative="1" as="geometry">
                        <Array as="points">
                            <mxPoint x="414" y="880"/>
                            <mxPoint x="30" y="880"/>
                            <mxPoint x="30" y="320"/>
                        </Array>
                    </mxGeometry>
                </mxCell>
                <mxCell id="Rmcl3d-cK1_simxLNgVq-9" value="&lt;div style=&quot;color: rgb(212 , 212 , 212) ; background-color: rgb(30 , 30 , 30) ; font-family: &amp;#34;droid sans mono&amp;#34; , &amp;#34;monospace&amp;#34; , monospace ; font-size: 14px ; line-height: 19px&quot;&gt;&lt;div&gt;&lt;span style=&quot;color: #9cdcfe&quot;&gt;newArr&lt;/span&gt;[&lt;span style=&quot;color: #9cdcfe&quot;&gt;ind&lt;/span&gt;] = &lt;span style=&quot;color: #9cdcfe&quot;&gt;arr&lt;/span&gt;[&lt;span style=&quot;color: #9cdcfe&quot;&gt;i&lt;/span&gt;]&lt;/div&gt;&lt;div&gt;                    &lt;span style=&quot;color: #9cdcfe&quot;&gt;ind&lt;/span&gt;++&lt;/div&gt;&lt;/div&gt;" style="rounded=0;whiteSpace=wrap;html=1;" vertex="1" parent="Rmcl3d-cK1_simxLNgVq-1">
                    <mxGeometry x="306" y="770" width="216" height="60" as="geometry"/>
                </mxCell>
                <mxCell id="Rmcl3d-cK1_simxLNgVq-10" value="&lt;div style=&quot;color: rgb(212 , 212 , 212) ; background-color: rgb(30 , 30 , 30) ; font-family: &amp;#34;droid sans mono&amp;#34; , &amp;#34;monospace&amp;#34; , monospace ; font-size: 14px ; line-height: 19px&quot;&gt;&lt;span style=&quot;color: #c586c0&quot;&gt;return&lt;/span&gt; &lt;span style=&quot;color: #9cdcfe&quot;&gt;newArr&lt;/span&gt;&lt;/div&gt;" style="ellipse;whiteSpace=wrap;html=1;" vertex="1" parent="Rmcl3d-cK1_simxLNgVq-1">
                    <mxGeometry x="336" y="990" width="156" height="80" as="geometry"/>
                </mxCell>
            </root>
        </mxGraphModel>
    </diagram>
</mxfile>